<?xml version="1.0" standalone="no"?>
<!DOCTYPE svg PUBLIC "-//W3C//DTD SVG 20010904//EN"
 "http://www.w3.org/TR/2001/REC-SVG-20010904/DTD/svg10.dtd">
<svg version="1.0" xmlns="http://www.w3.org/2000/svg"
 width="512.000000pt" height="512.000000pt" viewBox="0 0 512.000000 512.000000"
 preserveAspectRatio="xMidYMid meet">
<metadata>
Created by potrace 1.14, written by Peter Selinger 2001-2017
</metadata>
<g transform="translate(0.000000,512.000000) scale(0.100000,-0.100000)"
fill="#000000" stroke="none">
<path d="M2320 5110 c-491 -47 -981 -247 -1365 -557 -129 -104 -340 -321 -433
-445 -274 -365 -443 -782 -504 -1238 -16 -123 -16 -509 0 -625 65 -459 233
-873 501 -1230 92 -122 304 -341 426 -440 368 -299 822 -493 1305 -557 123
-16 509 -16 625 0 459 65 873 233 1230 501 122 92 341 304 440 426 299 368
493 822 557 1305 16 123 16 509 0 625 -65 459 -233 873 -501 1230 -92 122
-304 341 -426 440 -365 297 -826 494 -1295 555 -115 15 -443 21 -560 10z"/>
</g>
</svg>
